<?xml version="1.0" encoding="UTF-8" standalone="no"?>
<!-- Created with Inkscape (http://www.inkscape.org/) -->

<svg
   width="352"
   height="368"
   viewBox="0 0 352 368"
   version="1.1"
   id="svg1"
   xml:space="preserve"
   xmlns="http://www.w3.org/2000/svg"
   xmlns:svg="http://www.w3.org/2000/svg"><defs
     id="defs1" /><g
     id="g1"
     style="display:inline;fill:#ffffff"
     transform="translate(48)"><path
       style="baseline-shift:baseline;display:inline;overflow:visible;opacity:1;vector-effect:none;fill:#ffffff;fill-rule:evenodd;stroke-linejoin:round;enable-background:accumulate;stop-color:#000000;stop-opacity:1"
       d="m 128,68 c -31.092403,0 -57.061602,23.797397 -59.771484,54.77148 -2.709883,30.97409 18.733475,58.91727 49.353514,64.31641 l 0.69336,-3.93945 C 89.662616,178.10323 69.680652,152.06275 72.212891,123.11914 74.74513,94.175528 98.945828,72 128,72 c 29.05417,0 53.25487,22.175527 55.78711,51.11914 2.53224,28.94361 -17.44973,54.98409 -46.0625,60.0293 l 0.69336,3.93945 c 30.62004,-5.39914 52.0634,-33.34232 49.35351,-64.31641 C 185.0616,91.797396 159.0924,68 128,68 Z"
       id="path5" /><path
       style="baseline-shift:baseline;display:inline;overflow:visible;opacity:1;vector-effect:none;fill:#ffffff;fill-rule:evenodd;stroke-linejoin:round;enable-background:accumulate;stop-color:#000000;stop-opacity:1"
       d="M 127.28125,48 C 89.12816,48.312362 55.96474,75.826865 49.214844,114.10742 l 3.939453,0.69531 C 60.000251,75.977406 95.348796,48.85301 134.62305,52.289062 173.8973,55.725115 204,88.575728 204,128 c 0,39.42427 -30.1027,72.27489 -69.37695,75.71094 -39.274254,3.43605 -74.622799,-23.68835 -81.468753,-62.51367 l -3.939453,0.69531 c 7.199889,40.83259 44.453086,69.41643 85.757816,65.80273 C 176.27738,204.08162 208,169.4625 208,128 208,86.537497 176.27738,51.918383 134.97266,48.304687 132.39111,48.078832 129.82479,47.979176 127.28125,48 Z"
       id="path7" /><path
       style="baseline-shift:baseline;display:inline;overflow:visible;opacity:1;vector-effect:none;fill:#ffffff;fill-rule:evenodd;stroke-linejoin:round;enable-background:accumulate;stop-color:#000000;stop-opacity:1"
       d="M 110.63477,29.519531 C 59.589615,38.520166 23.863352,85.079479 28.380859,136.71484 32.898367,188.35021 76.167396,228 128,228 c 51.8326,0 95.10163,-39.64979 99.61914,-91.28516 4.51751,-51.635361 -31.20876,-98.194672 -82.25391,-107.195309 l -0.69531,3.939453 c 49.03789,8.646702 83.30471,53.303314 78.96485,102.908206 C 219.2949,185.97208 177.79437,224 128,224 78.205627,224 36.705098,185.97208 32.365234,136.36719 28.02537,86.762297 62.292194,42.105684 111.33008,33.458984 Z"
       id="path9" /><path
       id="path21"
       style="display:inline;vector-effect:non-scaling-stroke;fill:#ffffff;fill-opacity:1;fill-rule:evenodd;stroke:none;stroke-width:1;stroke-linejoin:round;-inkscape-stroke:hairline"
       d="m 136.78228,134.64166 -9.94335,5.74218 -2.97266,11.0918 6.40625,-8.45508 7.07618,-4.08593 5.38867,3.55859 4.08398,7.07421 0.38672,6.44727 -7.07421,4.08398 -10.5254,1.32031 11.09179,2.97267 9.94336,-5.7422 2.97266,-11.08984 -5.74219,-9.94531 z" /><path
       style="baseline-shift:baseline;display:inline;overflow:visible;opacity:1;vector-effect:none;fill:#ffffff;fill-rule:evenodd;stroke-linejoin:round;enable-background:accumulate;stop-color:#000000;stop-opacity:1"
       d="m 126,28 v 2 c 0,4.437911 -3.65068,8.058436 -8.20312,8.572266 C 76.248343,43.261806 43.261806,76.248343 38.572266,117.79688 37.817385,124.48499 43.392145,130 50,130 c 4.435075,0 8.078194,3.68263 8.755859,8.25781 2.187847,14.771 9.061161,28.5553 19.746094,39.24024 10.684936,10.68493 24.469237,17.55825 39.240237,19.74609 C 124.43461,198.23541 130,192.61069 130,186 130,179.3825 124.67079,174.31337 118.48633,173.00586 109.8349,171.17678 101.8214,166.87608 95.472656,160.52734 86.845439,151.90012 81.999999,140.20073 82,128 h -4 c -10e-7,13.26005 5.268255,25.97919 14.644531,35.35547 6.899971,6.89996 15.609679,11.57627 25.013669,13.56445 C 122.26102,177.89305 126,181.5718 126,186 c 0,4.43519 -3.44764,7.9128 -7.67187,7.28711 C 104.40161,191.22435 91.405306,184.74515 81.330078,174.66992 71.254853,164.5947 64.775654,151.5984 62.712891,137.67187 61.773608,131.3304 56.610619,126 50,126 45.561981,126 42.063558,122.5282 42.546875,118.24609 47.028457,78.540038 78.540038,47.028457 118.24609,42.546875 124.66387,41.822507 130,36.607783 130,30 v -2 z"
       id="path44" /><path
       id="path4"
       style="baseline-shift:baseline;display:inline;overflow:visible;opacity:1;vector-effect:none;fill:#ffffff;fill-rule:evenodd;stroke-linejoin:round;enable-background:accumulate;stop-color:#000000;stop-opacity:1"
       d="m 112,92.001953 c -6.21678,0 -12.433557,1.606525 -18,4.820313 C 82.867113,103.24984 76,115.14485 76,128 h 8 c 0,-10.00985 5.331215,-19.24312 14,-24.24805 8.66879,-5.004922 19.33122,-5.004923 28,0 5.07415,2.92997 7.28289,9.01576 5.26758,14.51758 -2.01532,5.50182 -7.63426,8.7244 -13.40039,7.68359 -5.76612,-1.04081 -9.90234,-6.03514 -9.86719,-11.83398 1.8e-4,-0.008 4e-4,-0.0167 -1e-5,-0.0254 -4e-5,-4.69863 1.16739,-9.16063 3.25195,-13.08594 -3.23118,0.0895 -6.44955,0.75912 -9.49609,2.00977 -1.14065,3.50277 -1.753,7.22625 -1.75391,11.06836 -0.05158,9.65167 6.91197,18.01711 16.44727,19.73828 9.54001,1.72201 18.99577,-3.7 22.33008,-12.80273 3.33432,-9.10273 -0.38417,-19.34968 -8.77929,-24.198241 -5.56644,-3.214761 -11.78322,-4.821286 -18,-4.821286 z m 24.1582,-13.859376 c -2.11882,-0.0095 -4.26278,0.168235 -6.41015,0.546876 -8.67494,1.529623 -16.17372,6.106073 -21.47266,12.501952 1.23819,-0.124945 2.4815,-0.187498 3.72461,-0.187498 2.41862,-2e-6 4.83643,0.235961 7.21875,0.708983 3.41954,-2.555451 7.46771,-4.357532 11.91992,-5.142576 13.40795,-2.364183 26.51535,5.204334 31.17188,17.998046 4.65653,12.79372 -0.5198,27.01682 -12.31055,33.82422 l 4,6.92773 c 5.66512,-3.27074 10.14673,-7.89933 13.2207,-13.27148 5.12328,-8.95359 6.33825,-19.97375 2.60938,-30.21875 C 164.60965,87.48707 150.98993,78.208935 136.1582,78.142577 Z" /></g><g
     id="g7"
     transform="matrix(1.3187774,0,0,1.3187774,5.1326866,-87.44285)"
     style="display:inline;fill:#ffffff;fill-opacity:1"><path
       d="M 64.039776,282.33984 76.462702,264.67889 65.268163,247.80596 h 9.479434 l 3.291148,5.1685 q 1.066147,1.69193 1.738283,3.12891 0.695313,1.43698 1.297917,2.75807 0.602605,-1.32109 1.297918,-2.75807 0.695313,-1.43698 1.761459,-3.12891 l 3.36068,-5.1685 h 9.224486 l -11.009123,16.64116 12.191155,17.89272 h -9.711205 l -4.310941,-6.60547 q -1.158855,-1.78464 -1.738282,-2.92031 -0.579428,-1.13568 -1.182032,-2.27136 -0.602605,1.1125 -1.20521,2.27136 -0.579427,1.13567 -1.761459,2.92031 l -4.473181,6.60547 z m 51.638584,-25.91199 v 6.00286 h -4.6586 v 11.98257 q 0,2.0164 2.06276,2.0164 0.41719,0 1.15885,-0.0927 0.76485,-0.11588 1.08933,-0.18541 l 1.04297,5.88698 q -1.36745,0.39401 -2.64219,0.53307 -1.27474,0.13907 -2.41042,0.13907 -4.12552,0 -6.25782,-1.9237 -2.13229,-1.94688 -2.13229,-5.65521 v -12.70106 h -3.430211 v -6.00286 h 3.430211 v -6.16511 h 8.08881 v 6.16511 z m 15.76042,26.39871 q -6.09557,0 -9.59532,-3.54609 -3.47656,-3.56928 -3.47656,-9.80392 0,-3.98646 1.55286,-6.99948 1.57605,-3.01302 4.45001,-4.68178 2.87396,-1.69192 6.76771,-1.69192 3.63881,0 6.44323,1.52968 2.82761,1.50652 4.42683,4.47319 1.6224,2.94349 1.6224,7.20807 v 2.03959 h -17.3133 q 0.11589,2.80443 1.52969,4.21823 1.43698,1.39063 3.73152,1.39063 1.62239,0 2.80442,-0.67214 1.18204,-0.69531 1.66876,-1.99323 l 7.20807,1.18203 q -0.97343,3.36068 -4.05599,5.35391 -3.05938,1.99323 -7.76433,1.99323 z M 126.363,266.64895 h 9.59532 q -0.23177,-2.20183 -1.43698,-3.43021 -1.20521,-1.25157 -3.31433,-1.25157 -2.13229,0 -3.38386,1.27474 -1.22838,1.25157 -1.46015,3.40704 z m 29.59715,0.9039 v 14.78699 h -8.08881 v -25.91199 h 7.60209 l 0.13907,5.58568 q 1.01979,-2.68855 2.98984,-4.28777 1.97006,-1.62239 5.12214,-1.62239 4.05599,0 6.51277,2.66536 2.45677,2.66537 2.45677,7.06902 v 16.50209 h -8.08881 v -14.92605 q 0,-2.17865 -1.1125,-3.40703 -1.1125,-1.25157 -3.10573,-1.25157 -1.97005,0 -3.19844,1.27474 -1.22839,1.25157 -1.22839,3.52292 z m 36.0404,-11.125 v 6.00286 h -4.6586 v 11.98257 q 0,2.0164 2.06276,2.0164 0.41719,0 1.15886,-0.0927 0.76484,-0.11588 1.08932,-0.18541 l 1.04297,5.88698 q -1.36745,0.39401 -2.64219,0.53307 -1.27474,0.13907 -2.41042,0.13907 -4.12552,0 -6.25781,-1.9237 -2.1323,-1.94688 -2.1323,-5.65521 v -12.70106 h -3.43021 v -6.00286 h 3.43021 v -6.16511 h 8.08881 v 6.16511 z"
       id="text2"
       style="font-weight:800;font-size:47.4667px;font-family:Inter;-inkscape-font-specification:'Inter, Ultra-Bold';letter-spacing:0px;fill-rule:evenodd;stroke-linejoin:round;fill:#ffffff"
       aria-label="Xtent" /><path
       d="m 31.460686,296.04721 v 26.38544 h -6.251048 v -26.38544 z m 10.270843,15.08751 v 11.29793 h -6.180214 v -19.79794 h 5.808338 l 0.106251,4.26771 q 0.779167,-2.05416 2.284377,-3.27604 1.505209,-1.23958 3.913545,-1.23958 3.098961,0 4.976046,2.03646 1.877085,2.03646 1.877085,5.40104 v 12.60835 h -6.180214 v -11.40418 q 0,-1.66458 -0.85,-2.60313 -0.850001,-0.95625 -2.372919,-0.95625 -1.50521,0 -2.443753,0.97396 -0.938542,0.95625 -0.938542,2.69167 z m 23.038565,0 v 11.29793 h -6.180215 v -19.79794 h 5.808339 l 0.10625,4.26771 q 0.779168,-2.05416 2.284377,-3.27604 1.50521,-1.23958 3.913546,-1.23958 3.098961,0 4.976046,2.03646 1.877085,2.03646 1.877085,5.40104 v 12.60835 h -6.180214 v -11.40418 q 0,-1.66458 -0.850001,-2.60313 -0.850001,-0.95625 -2.372919,-0.95625 -1.505209,0 -2.443752,0.97396 -0.938542,0.95625 -0.938542,2.69167 z m 26.048978,11.6698 q -3.098961,0 -5.330213,-1.275 -2.231252,-1.29271 -3.43542,-3.57708 -1.18646,-2.30209 -1.18646,-5.34793 0,-3.04583 1.18646,-5.34792 1.204168,-2.30208 3.43542,-3.57708 2.231252,-1.29271 5.330213,-1.29271 3.098961,0 5.312505,1.29271 2.231252,1.275 3.417711,3.57708 1.204172,2.30209 1.204172,5.34792 0,3.04584 -1.204172,5.34793 -1.186459,2.28437 -3.417711,3.57708 -2.213544,1.275 -5.312505,1.275 z m 0,-4.72813 q 1.770835,0 2.709378,-1.50521 0.938542,-1.52291 0.938542,-4.00208 0,-2.47917 -0.938542,-3.96667 -0.938543,-1.48751 -2.709378,-1.48751 -1.770835,0 -2.709378,1.48751 -0.938542,1.4875 -0.938542,3.96667 0,2.47917 0.938542,4.00208 0.938543,1.50521 2.709378,1.50521 z m 18.168768,4.35626 -7.17188,-19.79794 h 6.51667 l 2.9573,9.68647 q 0.40729,1.32813 0.72604,2.69167 0.33646,1.36354 0.65521,2.79792 0.28333,-1.43438 0.60208,-2.78021 0.31875,-1.36355 0.72604,-2.70938 l 2.90417,-9.68647 h 6.44584 l -7.2073,19.79794 z m 21.90523,0.35416 q -2.85105,0 -4.69271,-1.45208 -1.82396,-1.45208 -1.82396,-4.39167 0,-2.19584 1.00937,-3.48855 1.00938,-1.29271 2.67396,-1.9125 1.6823,-0.61979 3.68334,-0.79687 2.51458,-0.2125 3.59479,-0.51355 1.09792,-0.31875 1.09792,-1.23958 v -0.0708 q 0,-1.02709 -0.72604,-1.57605 -0.70833,-0.56666 -1.96563,-0.56666 -1.29271,0 -2.125,0.54896 -0.83229,0.54895 -1.08021,1.4875 l -5.59584,-0.72605 q 0.58438,-2.53229 2.85105,-4.10833 2.28437,-1.59375 6.00313,-1.59375 2.46146,0 4.44479,0.76145 2.00105,0.76146 3.1698,2.24897 1.18646,1.46979 1.18646,3.59479 v 13.44064 h -5.80834 v -2.78021 h -0.15938 q -1.64687,3.13437 -5.7375,3.13437 z m 1.87708,-4.09062 q 1.55834,0 2.63855,-0.92084 1.08021,-0.92083 1.08021,-2.39063 v -1.89479 q -0.53125,0.28333 -1.54063,0.47813 -1.00938,0.19479 -1.87708,0.33646 -2.85105,0.425 -2.85105,2.35521 0,0.99166 0.70833,1.52291 0.72605,0.51355 1.84167,0.51355 z m 24.5969,-16.06148 v 4.58647 h -3.55938 v 9.15521 q 0,1.54063 1.57605,1.54063 0.31875,0 0.88541,-0.0708 0.58438,-0.0885 0.8323,-0.14167 l 0.79687,4.49792 q -1.04479,0.30104 -2.01875,0.40729 -0.97396,0.10625 -1.84167,0.10625 -3.15208,0 -4.78125,-1.46979 -1.62917,-1.4875 -1.62917,-4.32084 v -9.70417 h -2.62084 v -4.58647 h 2.62084 v -4.71042 h 6.18021 v 4.71042 z m 3.16981,19.79794 v -19.79794 h 6.18021 v 19.79794 z m 3.08125,-22.11773 q -1.31042,0 -2.24896,-0.86771 -0.93855,-0.86771 -0.93855,-2.10729 0,-1.23959 0.93855,-2.1073 0.93854,-0.86771 2.24896,-0.86771 1.32812,0 2.26667,0.86771 0.93854,0.86771 0.93854,2.1073 0,1.23958 -0.93854,2.10729 -0.93855,0.86771 -2.26667,0.86771 z m 16.38021,22.4896 q -3.09896,0 -5.33022,-1.275 -2.23125,-1.29271 -3.43542,-3.57708 -1.18646,-2.30209 -1.18646,-5.34793 0,-3.04583 1.18646,-5.34792 1.20417,-2.30208 3.43542,-3.57708 2.23126,-1.29271 5.33022,-1.29271 3.09896,0 5.3125,1.29271 2.23125,1.275 3.41771,3.57708 1.20417,2.30209 1.20417,5.34792 0,3.04584 -1.20417,5.34793 -1.18646,2.28437 -3.41771,3.57708 -2.21354,1.275 -5.3125,1.275 z m 0,-4.72813 q 1.77083,0 2.70937,-1.50521 0.93855,-1.52291 0.93855,-4.00208 0,-2.47917 -0.93855,-3.96667 -0.93854,-1.48751 -2.70937,-1.48751 -1.77084,0 -2.70938,1.48751 -0.93854,1.4875 -0.93854,3.96667 0,2.47917 0.93854,4.00208 0.93854,1.50521 2.70938,1.50521 z m 19.44377,-6.94167 v 11.29793 h -6.18021 v -19.79794 h 5.80834 l 0.10625,4.26771 q 0.77916,-2.05416 2.28437,-3.27604 1.50521,-1.23958 3.91355,-1.23958 3.09896,0 4.97604,2.03646 1.87709,2.03646 1.87709,5.40104 v 12.60835 h -6.18021 v -11.40418 q 0,-1.66458 -0.85001,-2.60313 -0.85,-0.95625 -2.37291,-0.95625 -1.50521,0 -2.44376,0.97396 -0.93854,0.95625 -0.93854,2.69167 z m 25.19898,11.6698 q -3.8073,0 -6.26876,-1.59375 -2.44375,-1.61146 -2.95729,-4.44479 l 5.7375,-0.90313 q 0.37188,1.29271 1.2573,1.94792 0.88541,0.65521 2.46146,0.65521 1.29271,0 2.03646,-0.44271 0.74375,-0.46042 0.74375,-1.20417 0,-1.29271 -2.42605,-1.77083 l -3.45312,-0.67292 q -5.86147,-1.11563 -5.86147,-5.70209 0,-2.95729 2.35521,-4.62188 2.37292,-1.66458 6.3573,-1.66458 3.71875,0 5.96771,1.46979 2.24896,1.46979 2.76251,4.01979 l -5.45418,0.86771 q -0.60208,-2.10729 -3.16979,-2.10729 -1.11563,0 -1.89479,0.46042 -0.76146,0.44271 -0.76146,1.20416 0,0.60209 0.47812,1.06251 0.47813,0.4427 1.75313,0.69062 l 3.78959,0.70834 q 5.82604,1.09791 5.82604,5.34792 0,2.03646 -1.20416,3.54167 -1.18646,1.50521 -3.27605,2.3375 -2.08958,0.81458 -4.79896,0.81458 z"
       id="text5"
       style="font-weight:800;font-size:36.2667px;font-family:Inter;-inkscape-font-specification:'Inter, Ultra-Bold';letter-spacing:0px;fill-rule:evenodd;stroke-linejoin:round;fill:#ffffff"
       aria-label="Innovations" /></g></svg>
